<svg width="192" height="222" xmlns="http://www.w3.org/2000/svg" xmlns:xlink="http://www.w3.org/1999/xlink" overflow="hidden"><defs><clipPath id="clip0"><rect x="211" y="466" width="192" height="222"/></clipPath><clipPath id="clip1"><path d="M399.326 630.742 399.326 524.393 307.075 471.218 214.825 524.393 214.825 630.742 307.075 683.917 399.326 630.742Z"/></clipPath></defs><g clip-path="url(#clip0)" transform="translate(-211 -466)"><g clip-path="url(#clip1)"><path d="M33.1779 27.6595 251.848 27.6595 251.848 246.329 33.1779 246.329Z" stroke="#000000" stroke-width="0.0437339" stroke-miterlimit="10" transform="matrix(1.00162 0 0 1 168.99 439.04)"/><path d="M-31.625 130.427 233.267 130.427 233.267 143.286-31.625 143.286Z" stroke="#000000" stroke-width="0.0437516" stroke-miterlimit="10" fill="#4D4D4D" transform="matrix(0.867076 -0.499798 0.500607 0.865676 157.106 536.839)"/><path d="M-32.1132 123.897 232.779 123.897 232.779 127.153-32.1132 127.153Z" stroke="#000000" stroke-width="0.0437516" stroke-miterlimit="10" fill="#4D4D4D" transform="matrix(0.867076 -0.499798 0.500607 0.865676 162.714 535.077)"/><path d="M-18.4964 154.269 246.396 154.269 246.396 155.897-18.4964 155.897Z" stroke="#000000" stroke-width="0.0437516" stroke-miterlimit="10" fill="#4D4D4D" transform="matrix(0.867076 -0.499798 0.500607 0.865676 149.743 545.841)"/><path d="M-24.7061 141.3 240.186 141.3 240.186 143.307-24.7061 143.307Z" stroke="#000000" stroke-width="0.0437516" stroke-miterlimit="10" fill="#4D4D4D" transform="matrix(0.867076 -0.499798 0.500607 0.865676 155.308 541.026)"/><path d="M-13.5022 155.511 251.39 155.511 251.39 171.954-13.5022 171.954Z" stroke="#000000" stroke-width="0.0437516" stroke-miterlimit="10" fill="#4D4D4D" transform="matrix(0.867076 -0.499798 0.500607 0.865676 146.083 549.496)"/><path d="M-30.0381 148.075 234.854 148.075 234.854 151.331-30.0381 151.331Z" stroke="#000000" stroke-width="0.0437516" stroke-miterlimit="10" fill="#4D4D4D" transform="matrix(0.867076 -0.499798 0.500607 0.865676 150.888 539.352)"/><path d="M-35.5154 97.948 229.377 97.948 229.377 99.9553-35.5154 99.9553Z" stroke="#000000" stroke-width="0.0437516" stroke-miterlimit="10" fill="#4D4D4D" transform="matrix(0.867076 -0.499798 0.500607 0.865676 175.56 529.818)"/><path d="M21.8986 168.917 227.438 168.917 227.438 170.925 21.8985 170.925Z" stroke="#000000" stroke-width="0.0437516" stroke-miterlimit="10" fill="#4D4D4D" transform="matrix(0.867076 -0.499798 0.500607 0.865676 143.753 553.186)"/><path d="M42.5686 168.722 248.108 168.722 248.108 173.649 42.5686 173.649Z" stroke="#000000" stroke-width="0.0437516" stroke-miterlimit="10" fill="#4D4D4D" transform="matrix(0.867076 -0.499798 0.500607 0.865676 145.893 563.686)"/><path d="M-49.9683 87.6533 236.396 87.6533 236.396 95.7911-49.9683 95.7911Z" stroke="#000000" stroke-width="0.0437516" stroke-miterlimit="10" fill="#4D4D4D" transform="matrix(0.867076 -0.499798 0.500607 0.865676 178.681 526.993)"/><path d="M-41.9482 73.6764 231.681 73.6764 231.681 76.3802-41.9482 76.3802Z" stroke="#000000" stroke-width="0.0437516" stroke-miterlimit="10" fill="#4D4D4D" transform="matrix(0.867076 -0.499798 0.500607 0.865676 187.259 525.583)"/><path d="M-53.7458 56.9952 219.883 56.9952 219.883 62.6278-53.7458 62.6278Z" stroke="#000000" stroke-width="0.0437516" stroke-miterlimit="10" fill="#4D4D4D" transform="matrix(0.867076 -0.499798 0.500607 0.865676 193.295 517.648)"/><path d="M-60.6756 49.9766 212.953 49.9766 212.953 52.6804-60.6756 52.6804Z" stroke="#000000" stroke-width="0.0437516" stroke-miterlimit="10" fill="#4D4D4D" transform="matrix(0.867076 -0.499798 0.500607 0.865676 196.612 513.049)"/><path d="M-47.7212 39.2539 225.908 39.2539 225.908 40.6059-47.7212 40.6059Z" stroke="#000000" stroke-width="0.0437516" stroke-miterlimit="10" fill="#4D4D4D" transform="matrix(0.867076 -0.499798 0.500607 0.865676 204.056 517.997)"/><path d="M-26.4916 160.585 176.278 160.585 176.278 163.289-26.4916 163.289Z" fill="#C1272D" fill-opacity="0.6" transform="matrix(0.867076 -0.499798 0.500607 0.865676 141.073 527.239)"/><path d="M13.2467 174.702 216.017 174.702 216.017 176.581 13.2467 176.581Z" fill="#93278F" fill-opacity="0.6" transform="matrix(0.867076 -0.499798 0.500607 0.865676 139.543 548.936)"/><path d="M21.7555 174.575 224.525 174.575 224.525 176.454 21.7555 176.454Z" fill="#F7931E" fill-opacity="0.75" transform="matrix(0.867076 -0.499798 0.500607 0.865676 140.748 553.171)"/><path d="M-30.3133 75.7362 172.457 75.7362 172.457 78.4401-30.3133 78.4401Z" fill="#00FFFF" fill-opacity="0.5" transform="matrix(0.867076 -0.499798 0.500607 0.865676 183.037 513.966)"/><path d="M71.1888 114.273 68.3807 109.099 71.4582 104.079 77.3439 104.235 80.1516 109.41 77.0741 114.429 71.1888 114.273Z" fill="#93278F" fill-opacity="0.8" transform="matrix(1.00162 0 0 1 168.99 439.04)"/><path d="M60.23 125.747 58.8117 123.133 60.366 120.598 63.339 120.676 64.7573 123.29 63.2026 125.825 60.23 125.747Z" fill="#9000F4" transform="matrix(1.00162 0 0 1 168.99 439.04)"/><path d="M68.1782 118.369 66.3195 114.944 68.3566 111.622 72.252 111.725 74.1102 115.15 72.0735 118.472 68.1782 118.369Z" fill="#00FFFF" fill-opacity="0.6" transform="matrix(1.00162 0 0 1 168.99 439.04)"/><path d="M86.5057 125.529 85.2095 123.139 86.6304 120.822 89.3476 120.894 90.6443 123.283 89.2234 125.601 86.5057 125.529Z" fill="#00A99D" fill-opacity="0.7" transform="matrix(1.00162 0 0 1 168.99 439.04)"/><path d="M185.236 103.924 182.428 98.7486 185.506 93.7293 191.392 93.885 194.2 99.06 191.122 104.079 185.236 103.924Z" fill="#F15A24" fill-opacity="0.6" transform="matrix(1.00162 0 0 1 168.99 439.04)"/><path d="M189.26 86.5735 187.845 83.9657 189.396 81.4361 192.362 81.5144 193.777 84.1222 192.226 86.6518 189.26 86.5735Z" fill="#FBB03B" fill-opacity="0.7" transform="matrix(1.00162 0 0 1 168.99 439.04)"/><path d="M65.6696 160.786 63.1938 156.223 65.9071 151.798 71.0961 151.936 73.5714 156.498 70.8582 160.923 65.6696 160.786Z" fill="#ED1E79" fill-opacity="0.6" transform="matrix(1.00162 0 0 1 168.99 439.04)"/><path d="M63.4103 168.716 61.992 166.102 63.5463 163.566 66.5193 163.645 67.9376 166.259 66.3829 168.794 63.4103 168.716Z" fill="#F7931E" fill-opacity="0.8" transform="matrix(1.00162 0 0 1 168.99 439.04)"/><path d="M67.1373 173.98 64.3291 168.805 67.4067 163.786 73.2924 163.942 76.1006 169.117 73.023 174.135 67.1373 173.98Z" fill="#93278F" fill-opacity="0.7" transform="matrix(1.00162 0 0 1 168.99 439.04)"/><path d="M182.037 145.068 179.761 140.874 182.255 136.805 187.026 136.931 189.302 141.126 186.807 145.194 182.037 145.068Z" fill="#22B573" fill-opacity="0.7" transform="matrix(1.00162 0 0 1 168.99 439.04)"/><path d="M125.385 206.188 122.033 200.012 125.707 194.02 132.733 194.206 136.084 200.383 132.411 206.374 125.385 206.188Z" fill="#00FFFF" fill-opacity="0.6" transform="matrix(1.00162 0 0 1 168.99 439.04)"/><path d="M145.833 218.071 144.127 214.926 145.997 211.874 149.575 211.969 151.282 215.115 149.411 218.166 145.833 218.071Z" fill="#22B573" fill-opacity="0.7" transform="matrix(1.00162 0 0 1 168.99 439.04)"/><path d="M155.387 224.81 153.972 222.202 155.523 219.673 158.489 219.751 159.904 222.359 158.353 224.888 155.387 224.81Z" fill="#FBB03B" fill-opacity="0.7" transform="matrix(1.00162 0 0 1 168.99 439.04)"/><path d="M128.248 228.538 124.385 221.42 128.618 214.515 136.714 214.73 140.577 221.848 136.343 228.752 128.248 228.538Z" fill="#29ABE2" fill-opacity="0.6" transform="matrix(1.00162 0 0 1 168.99 439.04)"/><path d="M122.416 222.173 120.557 218.748 122.594 215.426 126.49 215.529 128.348 218.954 126.312 222.276 122.416 222.173Z" fill="#00FFFF" fill-opacity="0.6" transform="matrix(1.00162 0 0 1 168.99 439.04)"/><path d="M172.312 142.39 171.016 140 172.437 137.683 175.154 137.755 176.451 140.144 175.03 142.462 172.312 142.39Z" fill="#00A99D" fill-opacity="0.7" transform="matrix(1.00162 0 0 1 168.99 439.04)"/><path d="M81.9583 205.696 80.0882 202.25 82.1376 198.908 86.057 199.011 87.9267 202.457 85.8773 205.8 81.9583 205.696Z" fill="#FF00FF" fill-opacity="0.7" transform="matrix(1.00162 0 0 1 168.99 439.04)"/><path d="M207.366 143.274 203.825 136.748 207.706 130.419 215.128 130.615 218.668 137.141 214.787 143.47 207.366 143.274Z" fill="#ED1E79" fill-opacity="0.6" transform="matrix(1.00162 0 0 1 168.99 439.04)"/><path d="M213.548 128.888 211.557 125.217 213.74 121.657 217.914 121.768 219.906 125.438 217.723 128.999 213.548 128.888Z" fill="#F7931E" fill-opacity="0.8" transform="matrix(1.00162 0 0 1 168.99 439.04)"/><path d="M222.459 40.9271C220.689 41.9286 218.909 42.9118 217.153 43.9356 213.012 46.3485 208.878 48.7719 204.75 51.2059 201.087 53.3547 197.423 55.5035 193.761 57.6523 190.074 59.8156 186.387 61.9799 182.699 64.145 179.037 66.2944 175.374 68.4436 171.711 70.5927 168.025 72.7581 164.339 74.925 160.654 77.0933 157.091 79.1861 153.527 81.2772 149.962 83.3665 146.102 85.6328 142.242 87.9001 138.383 90.1685L127.471 96.5768C123.785 98.7425 120.099 100.909 116.413 103.075 112.776 105.211 109.138 107.346 105.5 109.48 101.764 111.675 98.0285 113.871 94.2939 116.068 90.6328 118.22 86.9717 120.372 83.3105 122.523 79.6748 124.662 76.0404 126.802 72.4072 128.945 68.7248 131.118 65.0449 133.296 61.3675 135.476 61.0731 135.651 60.8037 135.867 60.523 136.063L57.316 130.449C61.4633 128.05 65.6167 125.663 69.7556 123.25 73.3987 121.126 77.0247 118.974 80.6585 116.835 84.3672 114.653 88.0759 112.472 91.7849 110.291 95.4436 108.137 99.1013 105.982 102.758 103.824 106.44 101.654 110.123 99.4847 113.805 97.3155 117.389 95.2043 120.974 93.0938 124.558 90.9841 128.341 88.758 132.124 86.5329 135.908 84.3086 139.543 82.1703 143.177 80.0318 146.811 77.8932 150.446 75.7546 154.08 73.6163 157.716 71.4783 161.477 69.2686 165.237 67.06 168.996 64.8526 172.658 62.7018 176.319 60.5508 179.979 58.3997 183.616 56.2643 187.254 54.1299 190.892 51.9966 194.605 49.8195 198.319 47.6433 202.033 45.468 205.747 43.2927 209.46 41.1162 213.172 38.9385 216.167 37.179 219.159 35.4188 222.15 33.6581 222.25 33.6056 222.353 33.5588 222.459 33.5177Z" fill="#FF029E" transform="matrix(1.00162 0 0 1 212.094 468.121)"/><path d="M222.459 0.60484C219.726 2.18713 216.994 3.76972 214.263 5.3526 210.295 7.6635 206.33 9.97907 202.367 12.2993 198.752 14.4134 195.135 16.5291 191.518 18.6464 187.804 20.8209 184.089 22.9962 180.376 25.1724 176.835 27.2465 173.294 29.3205 169.752 31.3944 165.888 33.6546 162.022 35.913 158.156 38.1697 154.49 40.3135 150.824 42.4582 147.159 44.6038 143.394 46.8065 139.63 49.0097 135.866 51.2133 132.275 53.3152 128.685 55.4173 125.094 57.5198 121.627 59.5505 118.161 61.581 114.694 63.6115 114.423 63.7693 114.134 63.897 113.854 64.0383 113.645 63.8196 113.404 63.6193 113.233 63.3722 113.007 63.0451 112.832 62.6826 112.641 62.3314 112.017 61.1803 111.395 60.0286 110.774 58.8764 113.189 57.438 115.595 55.9843 118.021 54.5647 123.273 51.491 128.53 48.4263 133.793 45.3705 137.387 43.273 140.979 41.1706 144.567 39.0632 148.358 36.8473 152.148 34.6315 155.938 32.4156 159.654 30.2403 163.37 28.0652 167.086 25.8905 170.751 23.7449 174.417 21.5987 178.081 19.452 181.696 17.3353 185.313 15.2196 188.931 13.1049L200.376 6.41008C204.117 4.22251 207.857 2.03465 211.598-0.153506 215.041-2.16935 218.482-4.18578 221.924-6.20279 222.094-6.3025 222.28-6.37466 222.459-6.45994Z" fill="#03FFBF" transform="matrix(1.00162 0 0 1 212.094 468.121)"/><path d="M144.227 138.193C145.96 137.182 147.69 136.166 149.428 135.162 152.533 133.369 155.649 131.586 158.752 129.786 162.474 127.626 166.191 125.459 169.904 123.284 173.597 121.131 177.29 118.976 180.982 116.821L192.281 110.228 203.284 103.809C207.001 101.639 210.718 99.4699 214.436 97.3002 217.11 95.74 219.784 94.1802 222.46 92.6206L222.46 101.236C217.98 103.865 213.501 106.493 209.022 109.12 205.037 111.456 201.052 113.792 197.066 116.125 193.479 118.23 189.893 120.335 186.307 122.442 182.546 124.649 178.784 126.857 175.023 129.064 171.411 131.183 167.798 133.302 164.185 135.421 160.424 137.628 156.664 139.837 152.905 142.046L148.088 144.876C148.005 144.801 147.895 144.744 147.843 144.65 146.633 142.5 145.427 140.348 144.227 138.193Z" fill="#53D602" transform="matrix(1.00162 0 0 1 212.094 468.121)"/><path d="M108.723 71.8645C108.826 73.0396 108.54 74.1439 108.099 75.2163 107.163 77.4904 105.838 79.5289 104.384 81.4973 102.334 84.2727 100.121 86.9107 97.6968 89.3633 95.2976 91.7914 92.8861 94.213 90.3932 96.5409 88.0657 98.7125 85.6728 100.813 83.2143 102.843 80.4525 105.129 77.6474 107.371 74.7676 109.505 71.7031 111.774 68.5289 113.896 65.4024 116.082 64.8627 116.459 64.3125 116.822 63.7816 117.21 63.4387 117.461 63.2568 117.375 63.056 117.017 61.7803 114.74 60.4849 112.474 59.1956 110.204 58.0478 108.184 56.8998 106.164 55.7516 104.144 54.6034 102.124 53.4548 100.104 52.3058 98.0839 52.2367 97.9619 52.2022 97.8215 52.1519 97.6872 52.7423 97.3408 53.3331 96.9949 53.9244 96.6494 57.6593 94.4644 61.3942 92.2794 65.129 90.0941 68.7397 87.98 72.3499 85.8652 75.9597 83.7496 79.694 81.5629 83.4292 79.3784 87.1653 77.1961 90.8509 75.0403 94.5368 72.885 98.2229 70.73 100.628 69.3306 103.041 67.9507 105.45 66.5622 106.298 68.0338 107.137 69.5112 108.001 70.9728 108.198 71.2981 108.481 71.5689 108.723 71.8645Z" fill="#01EB01" transform="matrix(1.00162 0 0 1 212.094 468.121)"/><path d="M131.791 176.852C128.983 179.35 126.175 181.848 123.367 184.346 122.81 184.843 122.259 185.346 121.705 185.845 121.178 186.318 121.167 186.326 120.706 185.815 119.496 184.471 118.29 183.123 117.09 181.77 115.221 179.671 113.353 177.569 111.487 175.464 109.486 173.212 107.484 170.96 105.482 168.709 103.595 166.587 101.708 164.463 99.8214 162.34 95.9145 157.944 92.0076 153.547 88.1007 149.151 86.9383 147.843 85.7688 146.542 84.6051 145.235 84.4599 145.072 84.3322 144.893 84.148 144.661 84.4542 144.549 84.6864 144.45 84.9256 144.379 86.7393 143.837 88.5595 143.317 90.3688 142.761 96.481 140.882 102.591 138.997 108.699 137.105 108.863 137.055 109.022 136.99 109.184 136.931 110.408 139.074 111.638 141.211 112.857 143.356 115.21 147.499 117.558 151.643 119.904 155.789 122.422 160.233 124.94 164.677 127.457 169.12 128.907 171.694 130.346 174.275 131.791 176.852Z" fill="#EDFF01" transform="matrix(1.00162 0 0 1 212.094 468.121)"/><path d="M131.791 176.852C130.348 174.275 128.907 171.694 127.453 169.122 124.94 164.675 122.422 160.231 119.899 155.79 117.55 151.646 115.201 147.502 112.852 143.36 111.634 141.217 110.403 139.074 109.179 136.934 109.058 136.708 108.931 136.485 108.817 136.255 108.473 135.558 108.543 135.369 109.285 135.137 110.434 134.779 111.591 134.443 112.745 134.097 115.85 133.167 118.959 132.254 122.054 131.294 122.679 131.101 123.123 131.202 123.619 131.61 126.858 134.268 130.122 136.896 133.365 139.549 133.797 139.903 134.183 140.019 134.761 139.89 137.617 139.254 140.487 138.684 143.351 138.082 143.664 138.016 143.966 137.901 144.226 138.194 145.43 140.348 146.635 142.501 147.841 144.653 147.893 144.744 148.004 144.803 148.086 144.878 148.122 145.016 148.13 145.17 148.201 145.286 148.405 145.62 148.288 145.831 148.04 146.104 145.819 148.538 143.626 150.999 141.402 153.431 141.057 153.809 140.958 154.135 141.072 154.649 141.927 158.507 142.731 162.376 143.586 166.234 143.701 166.755 143.598 167.086 143.22 167.44 140.796 169.714 138.382 171.999 135.977 174.296 135.043 175.183 134.126 176.089 133.192 176.976 132.426 177.705 132.414 177.698 131.791 176.852Z" fill="#01B644" transform="matrix(1.00162 0 0 1 212.094 468.121)"/><path d="M48.9134 91.9874C48.5228 91.3243 48.1261 90.6653 47.7422 89.9979 45.4587 86.0155 43.1774 82.0322 40.8982 78.048 40.0695 76.6004 40.0577 76.5742 41.5236 75.8508 44.4053 74.4282 47.3031 73.0387 50.1926 71.6323 55.7227 68.94 61.4877 66.8316 67.2584 64.731 73.662 62.4 80.2011 60.5763 86.8928 59.2984 90.1107 58.6861 93.3527 58.2418 96.6424 58.3446 97.4165 58.374 98.1886 58.4438 98.9555 58.5536 99.9544 58.6873 100.911 59.0426 101.754 59.5936L102.206 60.7858C99.9902 62.1061 97.7804 63.4374 95.5565 64.7446 91.7735 66.9675 87.9861 69.1826 84.1944 71.39 80.5318 73.5329 76.8697 75.6771 73.208 77.8224 69.4962 79.9951 65.7837 82.1663 62.0707 84.3361 58.8978 86.1834 55.7144 88.0128 52.5367 89.8553 51.327 90.559 50.1222 91.2763 48.9134 91.9874Z" fill="#9FFF01" transform="matrix(1.00162 0 0 1 212.094 468.121)"/><path d="M57.316 130.449 60.523 136.063C60.7062 136.42 60.8759 136.784 61.0745 137.131 63.1781 140.809 65.2841 144.486 67.3927 148.161 69.9083 152.56 72.4206 156.961 74.9298 161.363 75.6558 162.636 75.6466 162.637 74.5047 163.532 73.264 164.503 72.0303 165.484 70.7873 166.451 70.5429 166.64 70.2625 166.785 70.0001 166.95 69.9127 166.84 69.8042 166.739 69.7347 166.618 67.6713 163.024 65.6105 159.428 63.5524 155.83 61.8235 152.802 60.1001 149.769 58.3822 146.733 58.2405 146.452 58.111 146.165 57.9549 145.892 56.2349 142.885 54.4999 139.887 52.7904 136.875 51.1932 134.064 49.6293 131.234 48.0317 128.423 45.9948 124.839 43.9478 121.261 41.8906 117.69 41.437 116.899 40.9669 116.115 40.5042 115.331 40.0992 114.646 39.6945 113.961 39.2901 113.276 39.1174 112.917 38.9617 112.549 38.7688 112.201 37.7288 110.328 36.6837 108.457 35.6335 106.588 35.8129 106.461 35.9764 106.298 36.1732 106.212 37.8777 105.463 39.5858 104.722 41.2975 103.99 41.9807 103.697 42.0016 103.698 42.3734 104.349 44.735 108.477 47.0918 112.607 49.4439 116.74 51.7017 120.696 53.9677 124.648 56.2419 128.596 56.5965 129.215 56.9573 129.832 57.316 130.449Z" fill="#FE5201" transform="matrix(1.00162 0 0 1 212.094 468.121)"/><path d="M40.5007 115.333C40.9634 116.121 41.4335 116.901 41.8871 117.692 43.9379 121.268 45.9849 124.845 48.0282 128.425 49.6258 131.236 51.1897 134.067 52.7869 136.878 54.4977 139.889 56.2314 142.888 57.9514 145.894 58.1075 146.167 58.237 146.454 58.3791 146.735 58.2256 146.802 58.0573 146.845 57.9221 146.938 56.6779 147.792 55.445 148.663 54.1982 149.512 52.8551 150.428 51.5002 151.325 50.1506 152.23 49.596 151.295 49.0271 150.368 48.4887 149.423 47.3564 147.427 46.2438 145.42 45.1212 143.419 42.6062 138.943 40.0906 134.467 37.5745 129.993 35.6096 126.491 33.6496 122.986 31.6944 119.479 31.5829 119.28 31.4972 119.067 31.4001 118.86 34.1699 117.869 36.9406 116.874 39.7122 115.877 40.0166 115.766 40.4268 115.786 40.5007 115.333Z" fill="#F8AE01" transform="matrix(1.00162 0 0 1 212.094 468.121)"/><path d="M50.1506 152.23C51.5002 151.325 52.8551 150.428 54.1982 149.512 55.445 148.663 56.6779 147.792 57.9221 146.938 58.0573 146.845 58.2256 146.802 58.3791 146.735 60.102 149.767 61.8252 152.8 63.5489 155.832 65.6041 159.431 67.6649 163.027 69.7312 166.62 69.8007 166.741 69.9061 166.842 69.9966 166.952 68.1889 169.252 66.3826 171.551 64.5775 173.851 64.1546 174.39 63.7405 174.936 63.2738 175.541 63.1208 175.354 62.9795 175.226 62.8907 175.068 60.5413 170.894 58.1957 166.717 55.8539 162.539 54.0031 159.237 52.1564 155.932 50.3137 152.625 50.2451 152.5 50.2066 152.362 50.1506 152.23Z" fill="#F4D102" transform="matrix(1.00162 0 0 1 212.094 468.121)"/><path d="M48.9134 91.9874C50.1222 91.2763 51.327 90.559 52.5402 89.8553 55.7157 88.0128 58.8991 86.1817 62.0742 84.3361 65.7907 82.1719 69.5032 80.0006 73.2115 77.8224 76.8744 75.6788 80.5365 73.5347 84.1979 71.39 87.985 69.1741 91.7723 66.959 95.56 64.7446 97.7839 63.4374 99.9937 62.1061 102.21 60.7858 102.83 61.8675 103.45 62.949 104.071 64.0304 103.581 64.3256 103.095 64.6274 102.602 64.916 98.8899 67.0888 95.1769 69.2609 91.463 71.4324 87.7249 73.6191 83.9873 75.8058 80.25 77.9925 76.6376 80.1081 73.0255 82.2245 69.4137 84.3418 65.1802 86.816 60.9446 89.2865 56.7067 91.7534L50.7651 95.2189Z" fill="#02EB00" transform="matrix(1.00162 0 0 1 212.094 468.121)"/><path d="M50.7629 95.2162 56.7046 91.7508C60.9406 89.2807 65.1763 86.8101 69.4115 84.3392 73.0268 82.2268 76.6389 80.1104 80.2479 77.9899 83.9848 75.8032 87.7224 73.6165 91.4608 71.4298 95.1738 69.2585 98.8868 67.0864 102.6 64.9134 103.093 64.6248 103.579 64.323 104.069 64.0283L105.452 66.5596C103.042 67.9481 100.627 69.3284 98.2243 70.7274 94.5346 72.8762 90.8487 75.0316 87.1666 77.1935 83.4314 79.3796 79.6962 81.5653 75.9611 83.7505 72.3498 85.864 68.7396 87.9789 65.1303 90.095 61.3958 92.2817 57.6609 94.4668 53.9257 96.6503 53.335 96.9961 52.7442 97.342 52.1532 97.6881Z" fill="#9CFF00" transform="matrix(1.00162 0 0 1 212.094 468.121)"/><path d="M105.452 66.5631 104.069 64.0317C103.448 62.9498 102.827 61.8681 102.208 60.7867L101.755 59.5945C102.308 59.0697 103.032 58.9875 103.728 58.8541 105.47 58.5247 107.247 58.4218 109.016 58.5479 109.607 58.5882 110.189 58.7614 110.775 58.8738 111.396 60.026 112.019 61.1777 112.642 62.3288 112.832 62.6786 113.007 63.0425 113.234 63.3696 113.404 63.6167 113.645 63.8153 113.855 64.0357 113.899 64.7748 113.595 65.4146 113.282 66.054 112.35 67.963 111.111 69.6647 109.724 71.2583 109.481 71.5378 109.062 71.6646 108.724 71.8614 108.481 71.5654 108.196 71.2929 108.003 70.9693 107.138 69.5112 106.3 68.0338 105.452 66.5631Z" fill="#02D3F7" transform="matrix(1.00162 0 0 1 212.094 468.121)"/><path d="M35.63 106.591C36.6762 108.461 37.7213 110.332 38.7653 112.203 38.9582 112.551 39.1152 112.919 39.2866 113.278 39.1834 113.328 39.0855 113.397 38.977 113.425 37.1043 113.906 35.2264 114.366 33.3572 114.862 32.1567 115.18 30.9689 115.548 29.7749 115.893 28.8675 114.341 27.9491 112.795 27.0551 111.235 26.5045 110.273 25.9902 109.291 25.3858 108.183Z" fill="#F8AF03" transform="matrix(1.00162 0 0 1 212.094 468.121)"/><path d="M29.7749 115.895C30.9689 115.549 32.1567 115.182 33.3572 114.864 35.2264 114.368 37.1043 113.907 38.977 113.427 39.0855 113.399 39.1834 113.33 39.2866 113.28 39.6913 113.965 40.096 114.65 40.5007 115.336 40.4268 115.788 40.0152 115.769 39.7135 115.878 36.9451 116.878 34.1744 117.872 31.4014 118.861 30.8588 117.871 30.3167 116.882 29.7749 115.895Z" fill="#F4D102" transform="matrix(1.00162 0 0 1 212.094 468.121)"/><path d="M46.2902 51.2304 45.6071 47.7352 47.1347 46.8605 46.2242 42.1989 49.052 40.5777 49.9625 45.238 51.4254 44.3996 52.1081 47.8948 50.6439 48.7332 51.8352 54.8306 53.2977 53.9922 53.9808 57.4874 52.5179 58.3258C51.8112 58.731 51.1218 58.7988 50.4497 58.5291 49.6917 58.1947 49.2106 57.5023 49.0065 56.4518L47.8152 50.3544Z" fill="#999999" transform="matrix(1.00162 0 0 1 212.094 468.121)"/><path d="M53.2518 41.5385 52.66 38.5095 55.5526 36.8507 56.1448 39.8801ZM56.1277 56.2576 53.5706 43.1698 56.4632 41.5114 59.0203 54.5992Z" fill="#999999" transform="matrix(1.00162 0 0 1 212.094 468.121)"/><path d="M69.3227 23.3421 73.7792 46.1393 64.2229 51.6179C63.4916 52.0371 62.7804 52.1175 62.0891 51.8588 61.3109 51.5361 60.8195 50.8498 60.6148 49.7998L59.4213 43.7025C59.1531 42.3304 59.2284 41.2362 59.6474 40.4198 59.9719 39.7428 60.6007 39.1377 61.5337 38.6044L68.392 34.6727 66.4948 24.9638ZM69.0747 38.1679 62.3467 42.0253 63.538 48.1226 70.266 44.2653Z" fill="#999999" transform="matrix(1.00162 0 0 1 212.094 468.121)"/><path d="M89.1906 41.9671C89.413 43.1062 89.3999 44.0494 89.1512 44.7967 88.8664 45.7375 88.1695 46.5258 87.0607 47.1614L81.1448 50.5529 80.5444 46.923 86.361 43.5874 85.5436 39.3942 78.7504 43.2887C77.7299 43.8733 76.9594 44.064 76.4386 43.8608 75.9179 43.6576 75.5339 42.923 75.2867 41.657L73.3654 31.8217 76.1933 30.2005C76.2385 30.432 76.8631 33.6297 78.0673 39.7935L84.8605 35.8986 82.986 26.306 85.8139 24.6848Z" fill="#999999" transform="matrix(1.00162 0 0 1 212.094 468.121)"/><path d="M98.6174 22.1386 98.4504 21.284 91.7538 25.1225C92.9171 31.0782 93.544 34.2887 93.6344 34.7541L90.7414 36.4124 88.1768 23.2857 97.7729 17.8277C98.8129 17.2312 99.5793 17.0221 100.072 17.2006 100.667 17.407 101.088 18.1443 101.335 19.4126L101.541 20.4622Z" fill="#999999" transform="matrix(1.00162 0 0 1 212.094 468.121)"/><text font-family="Source Sans Pro,Source Sans Pro_MSFontService,sans-serif" font-weight="400" font-size="175" transform="matrix(0.0438047 0 0 0.0437339 459.597 532)">L<tspan font-size="175" x="82.9502" y="0">o</tspan><tspan font-size="175" x="177.8" y="0">r</tspan><tspan font-size="175" x="236.77" y="0">em ipsum</tspan></text><path d="M137.283 184.409 136.337 182.769 135.899 183.023 135.681 182.645 136.126 182.347 135.709 181.482 136.129 181.24 136.608 182.071 137.406 181.609 137.643 182.018 136.844 182.477 137.794 184.123C138.005 184.489 138.24 184.629 138.581 184.432 138.685 184.373 138.794 184.252 138.871 184.16L139.186 184.481C139.055 184.631 138.884 184.802 138.701 184.908 138.068 185.274 137.621 184.995 137.283 184.409Z" fill="#999999" transform="matrix(1.00162 0 0 1 212.094 468.121)"/><path d="M137.446 180.34C137.333 180.145 137.412 179.929 137.607 179.816 137.802 179.702 138.028 179.743 138.141 179.938 138.253 180.133 138.175 180.349 137.98 180.463 137.784 180.577 137.555 180.529 137.446 180.34ZM138.076 181.22 138.576 180.932 140.286 183.895 139.786 184.183Z" fill="#999999" transform="matrix(1.00162 0 0 1 212.094 468.121)"/><path d="M140.221 181.966C139.665 181.003 139.929 180.053 140.606 179.662 140.948 179.465 141.247 179.463 141.632 179.525L141.316 179.033 140.658 177.893 141.164 177.6 143.67 181.942 143.255 182.181 143.012 181.858 142.994 181.868C142.892 182.228 142.688 182.606 142.34 182.807 141.597 183.236 140.791 182.953 140.221 181.966ZM142.727 181.478 141.834 179.929C141.453 179.848 141.178 179.893 140.934 180.033 140.459 180.308 140.345 180.983 140.736 181.66 141.144 182.368 141.689 182.622 142.207 182.322 142.482 182.164 142.642 181.893 142.727 181.478Z" fill="#999999" transform="matrix(1.00162 0 0 1 212.094 468.121)"/><path d="M145.072 182.75 144.94 182.297C145.027 182.279 145.111 182.25 145.191 182.21 145.526 182.016 145.584 181.624 145.497 181.188L145.437 180.93 142.534 178.647 143.052 178.348 144.603 179.64C144.842 179.843 145.121 180.088 145.372 180.31L145.396 180.296C145.326 179.978 145.236 179.624 145.163 179.316L144.747 177.37 145.235 177.088 145.971 180.939C146.102 181.644 146.053 182.265 145.456 182.61 145.337 182.68 145.207 182.727 145.072 182.75Z" fill="#999999" transform="matrix(1.00162 0 0 1 212.094 468.121)"/><path d="M145.806 176.757 146.221 176.518 146.573 177.03 146.591 177.019C146.578 176.531 146.745 176.117 147.081 175.926 147.188 175.86 147.308 175.818 147.433 175.804L147.589 176.299C147.478 176.32 147.371 176.359 147.274 176.416 147.024 176.561 146.831 176.916 146.919 177.532L148.017 179.434 147.517 179.722Z" fill="#999999" transform="matrix(1.00162 0 0 1 212.094 468.121)"/><path d="M149.005 178.455C148.871 178.223 148.944 177.97 149.145 177.853 149.347 177.737 149.597 177.804 149.731 178.036 149.856 178.23 149.8 178.49 149.605 178.615 149.41 178.741 149.151 178.685 149.025 178.49 149.018 178.478 149.011 178.467 149.005 178.455Z" fill="#999999" transform="matrix(1.00162 0 0 1 212.094 468.121)"/><path d="M150.08 177.021 149.133 175.381 148.695 175.635 148.477 175.257 148.922 174.959 148.505 174.094 148.925 173.852 149.404 174.683 150.202 174.221 150.439 174.63 149.64 175.091 150.59 176.737C150.801 177.103 151.037 177.243 151.377 177.046 151.481 176.986 151.59 176.866 151.667 176.773L151.982 177.095C151.851 177.245 151.68 177.416 151.497 177.521 150.863 177.886 150.418 177.607 150.08 177.021Z" fill="#999999" transform="matrix(1.00162 0 0 1 212.094 468.121)"/><path d="M150.242 172.952C150.13 172.757 150.208 172.541 150.403 172.428 150.598 172.314 150.825 172.355 150.937 172.55 151.05 172.745 150.971 172.961 150.776 173.075 150.581 173.189 150.352 173.143 150.242 172.952ZM150.872 173.832 151.372 173.544 153.083 176.507 152.583 176.795Z" fill="#999999" transform="matrix(1.00162 0 0 1 212.094 468.121)"/><path d="M153.018 174.577C152.461 173.615 152.726 172.665 153.403 172.274 153.744 172.077 154.044 172.075 154.429 172.137L154.112 171.645 153.454 170.505 153.96 170.213 156.467 174.553 156.052 174.793 155.809 174.47 155.79 174.48C155.689 174.84 155.484 175.218 155.137 175.418 154.393 175.848 153.588 175.565 153.018 174.577ZM155.524 174.09 154.63 172.541C154.25 172.46 153.974 172.505 153.731 172.645 153.256 172.92 153.141 173.595 153.532 174.272 153.94 174.979 154.486 175.234 155.004 174.934 155.278 174.776 155.438 174.505 155.524 174.09Z" fill="#999999" transform="matrix(1.00162 0 0 1 212.094 468.121)"/><path d="M157.868 175.362 157.737 174.909C157.823 174.891 157.908 174.862 157.987 174.822 158.322 174.628 158.38 174.236 158.293 173.8L158.233 173.542 155.33 171.26 155.849 170.96 157.399 172.252C157.638 172.455 157.918 172.7 158.167 172.922L158.192 172.907C158.122 172.59 158.032 172.236 157.96 171.928L157.543 169.982 158.031 169.7 158.766 173.551C158.898 174.256 158.85 174.877 158.252 175.222 158.133 175.292 158.003 175.339 157.868 175.362Z" fill="#999999" transform="matrix(1.00162 0 0 1 212.094 468.121)"/><path d="M158.176 169.616 158.694 169.316 160.225 170.675C160.479 170.919 160.749 171.161 161.003 171.389L161.027 171.375C160.95 171.045 160.875 170.69 160.792 170.348L160.381 168.342 160.875 168.056 161.537 171.625 160.952 171.963Z" fill="#999999" transform="matrix(1.00162 0 0 1 212.094 468.121)"/><path d="M162.065 169.354C161.505 168.384 161.816 167.417 162.493 167.026 163.249 166.589 163.989 166.886 164.478 167.733 164.534 167.829 164.583 167.928 164.625 168.03L162.626 169.185C163.024 169.791 163.641 169.972 164.208 169.645 164.488 169.483 164.673 169.254 164.812 168.989L165.179 169.216C165.018 169.529 164.782 169.852 164.379 170.084 163.587 170.54 162.624 170.323 162.065 169.354ZM163.997 167.913C163.652 167.316 163.197 167.148 162.734 167.415 162.319 167.655 162.135 168.208 162.412 168.828Z" fill="#999999" transform="matrix(1.00162 0 0 1 212.094 468.121)"/><path d="M164.449 165.994 164.864 165.755 165.216 166.266 165.234 166.256C165.221 165.768 165.388 165.354 165.724 165.16 165.831 165.094 165.951 165.052 166.076 165.038L166.233 165.533C166.122 165.553 166.015 165.593 165.918 165.65 165.668 165.794 165.475 166.15 165.562 166.765L166.66 168.668 166.161 168.956Z" fill="#999999" transform="matrix(1.00162 0 0 1 212.094 468.121)"/><path d="M167.728 167.604 167.784 167.123C168.16 167.182 168.507 167.177 168.86 166.973 169.25 166.748 169.326 166.428 169.178 166.172 169.003 165.866 168.571 165.937 168.178 166.002 167.669 166.092 167.089 166.158 166.801 165.659 166.526 165.183 166.693 164.599 167.333 164.229 167.671 164.039 168.064 163.97 168.447 164.033L168.393 164.488C168.103 164.451 167.827 164.465 167.564 164.616 167.193 164.831 167.138 165.131 167.268 165.356 167.43 165.637 167.813 165.554 168.223 165.488 168.741 165.4 169.318 165.302 169.642 165.863 169.92 166.344 169.769 166.969 169.067 167.373 168.647 167.619 168.142 167.676 167.728 167.604Z" fill="#999999" transform="matrix(1.00162 0 0 1 212.094 468.121)"/><path d="M169.734 164.926C169.174 163.957 169.485 162.989 170.162 162.598 170.918 162.161 171.658 162.458 172.147 163.305 172.204 163.4 172.253 163.5 172.294 163.602L170.295 164.757C170.694 165.364 171.31 165.544 171.877 165.217 172.158 165.055 172.342 164.826 172.481 164.561L172.848 164.788C172.687 165.1 172.451 165.424 172.048 165.656 171.256 166.112 170.293 165.896 169.734 164.926ZM171.666 163.485C171.321 162.888 170.866 162.72 170.403 162.987 169.988 163.226 169.804 163.78 170.081 164.401Z" fill="#999999" transform="matrix(1.00162 0 0 1 212.094 468.121)"/><path d="M173.549 164.284C173.416 164.052 173.489 163.799 173.69 163.683 173.891 163.566 174.141 163.634 174.275 163.865 174.4 164.06 174.344 164.319 174.15 164.445 173.955 164.57 173.695 164.514 173.57 164.319 173.562 164.308 173.556 164.296 173.549 164.284Z" fill="#999999" transform="matrix(1.00162 0 0 1 212.094 468.121)"/><path d="M174.209 162.343C173.635 161.349 173.954 160.409 174.68 159.99 175.405 159.571 176.379 159.765 176.954 160.759 177.522 161.74 177.201 162.68 176.476 163.099 175.75 163.518 174.775 163.324 174.209 162.343ZM176.434 161.058C176.041 160.375 175.431 160.109 174.919 160.404 174.407 160.7 174.333 161.36 174.727 162.043 175.118 162.72 175.729 162.977 176.235 162.685 176.741 162.392 176.825 161.735 176.434 161.058Z" fill="#999999" transform="matrix(1.00162 0 0 1 212.094 468.121)"/><path d="M176.874 158.821 177.288 158.581 177.641 159.093 177.659 159.083C177.646 158.595 177.813 158.181 178.148 157.987 178.255 157.921 178.376 157.879 178.501 157.865L178.656 158.36C178.545 158.38 178.439 158.42 178.342 158.477 178.092 158.621 177.899 158.977 177.986 159.593L179.084 161.495 178.585 161.784Z" fill="#999999" transform="matrix(1.00162 0 0 1 212.094 468.121)"/><path d="M180.741 161.295C180.596 161.045 180.624 160.712 180.784 160.374L180.77 160.35C180.544 160.344 180.338 160.218 180.23 160.019 180.086 159.769 180.143 159.476 180.236 159.284L180.222 159.26C179.869 159.202 179.56 158.991 179.377 158.683 179.004 158.037 179.28 157.332 179.884 156.984 180.027 156.9 180.184 156.842 180.347 156.814L181.377 156.219 181.599 156.603 180.989 156.953C181.242 157.025 181.456 157.193 181.585 157.422 181.951 158.056 181.698 158.731 181.095 159.079 180.94 159.167 180.768 159.219 180.59 159.232 180.539 159.384 180.51 159.531 180.605 159.695 180.714 159.884 180.914 159.948 181.316 159.715L181.889 159.384C182.578 158.987 183.049 159 183.332 159.493 183.649 160.042 183.345 160.852 182.424 161.384 181.701 161.805 181.036 161.807 180.741 161.295ZM182.89 159.852C182.732 159.577 182.465 159.609 182.081 159.831L181.569 160.127C181.44 160.203 181.302 160.262 181.157 160.302 181.032 160.577 181.042 160.807 181.141 160.978 181.324 161.295 181.763 161.309 182.3 161 182.867 160.668 183.07 160.161 182.89 159.85ZM181.123 157.677C180.873 157.245 180.445 157.153 180.097 157.351 179.749 157.55 179.616 157.97 179.867 158.401 180.118 158.832 180.562 158.943 180.903 158.745 181.244 158.548 181.373 158.109 181.123 157.676Z" fill="#999999" transform="matrix(1.00162 0 0 1 212.094 468.121)"/></g><path d="M229.964 191.703 229.964 85.3534 137.863 32.179 45.761 85.3534 45.761 191.703 137.863 244.877 229.964 191.703Z" stroke="#4D4D4D" stroke-width="5.24807" stroke-miterlimit="10" fill="none" transform="matrix(1.00162 0 0 1 168.99 439.04)"/></g></svg>